<svg width="16" height="16" viewBox="0 0 16 16" fill="none" xmlns="http://www.w3.org/2000/svg">
<path d="M7.99967 13.6667H4.66634C2.66634 13.6667 1.33301 12.6667 1.33301 10.3334V5.66671C1.33301 3.33337 2.66634 2.33337 4.66634 2.33337H11.333C13.333 2.33337 14.6663 3.33337 14.6663 5.66671V7.66671" stroke="black" stroke-width="1.5" stroke-miterlimit="10" stroke-linecap="round" stroke-linejoin="round"/>
<path d="M11.3337 6L9.24699 7.66667C8.56033 8.21333 7.43366 8.21333 6.74699 7.66667L4.66699 6M12.807 9.84667L10.447 12.2067C10.3537 12.3 10.267 12.4733 10.247 12.6L10.1203 13.5C10.0737 13.8267 10.3003 14.0533 10.627 14.0067L11.527 13.88C11.6537 13.86 11.8337 13.7733 11.9203 13.68L14.2803 11.32C14.687 10.9133 14.8803 10.44 14.2803 9.84C13.687 9.24667 13.2137 9.44 12.807 9.84667Z" stroke="black" stroke-width="1.5" stroke-miterlimit="10" stroke-linecap="round" stroke-linejoin="round"/>
<path d="M12.4668 10.1866C12.6668 10.9066 13.2268 11.4666 13.9468 11.6666" stroke="black" stroke-width="1.5" stroke-miterlimit="10" stroke-linecap="round" stroke-linejoin="round"/>
</svg>
